<svg width="1440" height="504" viewBox="0 0 1440 504" fill="none" xmlns="http://www.w3.org/2000/svg">
<g clip-path="url(#clip0_70_10142)">
<g clip-path="url(#clip1_70_10142)">
<g clip-path="url(#clip2_70_10142)">
<g clip-path="url(#clip3_70_10142)">
<path d="M-90 1049.76H1529.25M-90 1019.77H1529.25M-90 989.785H1529.25M-90 959.799H1529.25M-90 929.813H1529.25M-90 899.827H1529.25M-90 869.841H1529.25M-90 839.854H1529.25M-90 809.868H1529.25M-90 779.882H1529.25M-90 749.896H1529.25M-90 719.911H1529.25M-90 689.925H1529.25M-90 659.939H1529.25M-90 629.953H1529.25M-90 599.967H1529.25M-90 569.981H1529.25M-90 539.995H1529.25M-90 510.009H1529.25M-90 480.023H1529.25M-90 450.036H1529.25M-90 420.05H1529.25M-90 390.064H1529.25M-90 360.078H1529.25M-90 330.092H1529.25M-90 300.106H1529.25M-90 270.118H1529.25M-90 240.132H1529.25M-90 210.146H1529.25M-90 180.16H1529.25M-90 150.174H1529.25M-90 120.188H1529.25M-90 90.2015H1529.25M-90 60.2154H1529.25M-90 30.2293H1529.25M-90 0.243164H1529.25M-89.6252 0.617991V1050.13M-59.6391 0.617991V1050.13M-29.6529 0.617991V1050.13M0.333177 0.617991V1050.13M30.3193 0.617991V1050.13M60.3054 0.617991V1050.13M90.2915 0.617991V1050.13M120.278 0.617991V1050.13M150.264 0.617991V1050.13M180.25 0.617991V1050.13M210.236 0.617991V1050.13M240.222 0.617991V1050.13M270.208 0.617991V1050.13M300.194 0.617991V1050.13M330.18 0.617991V1050.13M360.167 0.617991V1050.13M390.154 0.617991V1050.13M420.14 0.617991V1050.13M450.126 0.617991V1050.13M480.113 0.617991V1050.13M510.099 0.617991V1050.13M540.085 0.617991V1050.13M570.071 0.617991V1050.13M600.057 0.617991V1050.13M630.043 0.617991V1050.13M660.028 0.617991V1050.13M690.014 0.617991V1050.13M720 0.617991V1050.13M749.986 0.617991V1050.13M779.972 0.617991V1050.13M809.958 0.617991V1050.13M839.944 0.617991V1050.13M869.931 0.617991V1050.13M899.917 0.617991V1050.13M929.903 0.617991V1050.13M959.889 0.617991V1050.13M989.875 0.617991V1050.13M1019.86 0.617991V1050.13M1049.85 0.617991V1050.13M1079.83 0.617991V1050.13M1109.82 0.617991V1050.13M1139.81 0.617991V1050.13M1169.79 0.617991V1050.13M1199.78 0.617991V1050.13M1229.76 0.617991V1050.13M1259.75 0.617991V1050.13M1289.74 0.617991V1050.13M1319.72 0.617991V1050.13M1349.71 0.617991V1050.13M1379.69 0.617991V1050.13M1409.68 0.617991V1050.13M1439.67 0.617991V1050.13M1469.65 0.617991V1050.13M1499.64 0.617991V1050.13M1529.63 0.617991V1050.13" stroke="#F3F4F7" stroke-width="0.749653"/>
<path d="M899.541 390.437H929.527V420.424H899.541V390.437ZM659.652 390.437H689.638V420.424H659.652V390.437ZM659.652 720.285H689.638V750.271H659.652V720.285ZM449.749 480.396H479.735V510.382H449.749V480.396ZM-30.0286 60.5901H-0.0424461V90.5762H-30.0286V60.5901ZM599.68 60.5901H629.666V90.5762H599.68V60.5901ZM1049.47 180.535H1079.46V210.521H1049.47V180.535ZM659.652 180.535H689.638V210.521H659.652V180.535ZM749.611 270.493H779.597V300.479H749.611V270.493ZM1019.49 300.479H1049.47V330.465H1019.49V300.479ZM509.722 150.548H539.708V180.535H509.722V150.548ZM89.9159 420.424H119.902V450.41H89.9159V420.424ZM989.5 510.382H1019.49V540.368H989.5V510.382ZM1109.44 720.285H1139.43V750.271H1109.44V720.285ZM1199.4 450.41H1229.39V480.396H1199.4V450.41ZM1319.35 600.34H1349.33V630.326H1319.35V600.34ZM1259.37 150.548H1289.36V180.535H1259.37V150.548ZM-30.0286 270.493H-0.0424461V300.479H-30.0286V270.493ZM-30.0286 750.271H-0.0424461V780.257H-30.0286V750.271ZM269.833 120.562H299.819V150.548H269.833V120.562ZM149.888 240.507H179.874V270.493H149.888V240.507ZM329.805 420.424H359.791V450.41H329.805V420.424ZM329.805 900.201H359.791V930.188H329.805V900.201ZM329.805 690.299H359.791V720.285H329.805V690.299ZM929.527 120.562H959.513V150.548H929.527V120.562Z" fill="#F6F7F9"/>
</g>
</g>
</g>
<rect width="1440" height="504.443" fill="url(#paint0_radial_70_10142)"/>
<rect width="1440" height="504.443" fill="url(#paint1_linear_70_10142)"/>
</g>
<defs>
<radialGradient id="paint0_radial_70_10142" cx="0" cy="0" r="1" gradientUnits="userSpaceOnUse" gradientTransform="translate(720 262.31) scale(866.667 327.888)">
<stop offset="0.414414" stop-color="white" stop-opacity="0"/>
<stop offset="1" stop-color="white" stop-opacity="0.7"/>
</radialGradient>
<linearGradient id="paint1_linear_70_10142" x1="720" y1="0" x2="720" y2="504.443" gradientUnits="userSpaceOnUse">
<stop offset="0.428561" stop-color="white" stop-opacity="0"/>
<stop offset="1" stop-color="white"/>
</linearGradient>
<clipPath id="clip0_70_10142">
<rect width="1440" height="504" fill="white"/>
</clipPath>
<clipPath id="clip1_70_10142">
<rect width="1620" height="1008" fill="white" transform="translate(-90)"/>
</clipPath>
<clipPath id="clip2_70_10142">
<rect width="1620" height="1050" fill="white" transform="translate(-90)"/>
</clipPath>
<clipPath id="clip3_70_10142">
<rect width="1620" height="1050.26" fill="white" transform="translate(-90 -0.131836)"/>
</clipPath>
</defs>
</svg>
