<svg width="28" height="28" viewBox="0 0 28 28" fill="none" xmlns="http://www.w3.org/2000/svg">
<g clip-path="url(#clip0_60_9290)">
<g clip-path="url(#clip1_60_9290)">
<path d="M13.708 25.666C12.7433 25.6773 11.7859 25.4971 10.8914 25.1357C9.9968 24.7743 9.18285 24.239 8.49666 23.5608C7.81047 22.8826 7.26569 22.075 6.89387 21.1848C6.52206 20.2945 6.3306 19.3393 6.3306 18.3745C6.3306 17.4097 6.52206 16.4545 6.89387 15.5643C7.26569 14.674 7.81047 13.8664 8.49666 13.1882C9.18285 12.51 9.9968 11.9747 10.8914 11.6133C11.7859 11.252 12.7433 11.0717 13.708 11.083M25.667 13.708C25.6783 14.6727 25.498 15.6301 25.1367 16.5247C24.7753 17.4192 24.24 18.2332 23.5618 18.9194C22.8836 19.6055 22.076 20.1503 21.1857 20.5221C20.2955 20.894 19.3403 21.0854 18.3755 21.0854C17.4107 21.0854 16.4555 20.894 15.5653 20.5221C14.675 20.1503 13.8674 19.6055 13.1892 18.9194C12.511 18.2332 11.9757 17.4192 11.6143 16.5247C11.253 15.6301 11.0727 14.6727 11.084 13.708M13.709 16.916C14.6737 16.9273 15.6311 16.7471 16.5256 16.3857C17.4202 16.0243 18.2341 15.489 18.9203 14.8108C19.6065 14.1326 20.1513 13.325 20.5231 12.4348C20.8949 11.5445 21.0864 10.5893 21.0864 9.62452C21.0864 8.65974 20.8949 7.70454 20.5231 6.81428C20.1513 5.92402 19.6065 5.11639 18.9203 4.43819C18.2341 3.75999 17.4202 3.22471 16.5256 2.86334C15.6311 2.50198 14.6737 2.32172 13.709 2.33302M16.917 13.709C16.9283 12.7443 16.748 11.7869 16.3867 10.8924C16.0253 9.99782 15.49 9.18387 14.8118 8.49768C14.1336 7.8115 13.326 7.26671 12.4357 6.8949C11.5455 6.52308 10.5903 6.33163 9.6255 6.33163C8.66071 6.33163 7.70552 6.52308 6.81526 6.8949C5.925 7.26671 5.11737 7.8115 4.43917 8.49768C3.76097 9.18387 3.22568 9.99782 2.86432 10.8924C2.50295 11.7869 2.3227 12.7443 2.334 13.709M14 16.916C14.3875 16.9232 14.7726 16.8531 15.1328 16.7097C15.4929 16.5664 15.8208 16.3527 16.0975 16.0812C16.3741 15.8096 16.5938 15.4857 16.7438 15.1283C16.8938 14.7709 16.971 14.3871 16.971 13.9995C16.971 13.6119 16.8938 13.2282 16.7438 12.8708C16.5938 12.5134 16.3741 12.1894 16.0975 11.9179C15.8208 11.6463 15.4929 11.4327 15.1328 11.2893C14.7726 11.146 14.3875 11.0758 14 11.083C13.2358 11.0972 12.5078 11.4107 11.9724 11.9561C11.437 12.5015 11.137 13.2352 11.137 13.9995C11.137 14.7638 11.437 15.4976 11.9724 16.043C12.5078 16.5884 13.2358 16.9019 14 16.916Z" stroke="#262626" stroke-width="1.5" stroke-linecap="round" stroke-linejoin="round"/>
</g>
</g>
<defs>
<clipPath id="clip0_60_9290">
<rect width="28" height="28" fill="white"/>
</clipPath>
<clipPath id="clip1_60_9290">
<rect width="28" height="28" fill="white"/>
</clipPath>
</defs>
</svg>
